<svg width="19" height="19" viewBox="0 0 19 19" fill="none" xmlns="http://www.w3.org/2000/svg">
<path d="M9.65771 18.7334C8.41553 18.7334 7.24658 18.4961 6.15088 18.0215C5.05518 17.5527 4.08838 16.8994 3.25049 16.0615C2.41846 15.2236 1.76514 14.2568 1.29053 13.1611C0.815918 12.0654 0.578613 10.8965 0.578613 9.6543C0.578613 8.41211 0.815918 7.24316 1.29053 6.14746C1.76514 5.05176 2.41846 4.08789 3.25049 3.25586C4.08838 2.41797 5.05225 1.76172 6.14209 1.28711C7.23779 0.8125 8.40674 0.575195 9.64893 0.575195C10.897 0.575195 12.0688 0.8125 13.1646 1.28711C14.2603 1.76172 15.2271 2.41797 16.0649 3.25586C16.9028 4.08789 17.5591 5.05176 18.0337 6.14746C18.5083 7.24316 18.7456 8.41211 18.7456 9.6543C18.7456 10.8965 18.5083 12.0654 18.0337 13.1611C17.5591 14.2568 16.9028 15.2236 16.0649 16.0615C15.2271 16.8994 14.2603 17.5527 13.1646 18.0215C12.0688 18.4961 10.8999 18.7334 9.65771 18.7334ZM5.92236 13.4336H13.3931C13.8618 13.4336 14.2163 13.3164 14.4565 13.082C14.6968 12.8418 14.8169 12.4844 14.8169 12.0098V8.71387H4.49854V12.0098C4.49854 12.4844 4.61865 12.8418 4.85889 13.082C5.10498 13.3164 5.45947 13.4336 5.92236 13.4336ZM6.31787 12.0449C6.03662 12.0449 5.896 11.9043 5.896 11.623V10.8232C5.896 10.542 6.03662 10.4014 6.31787 10.4014H7.39014C7.67139 10.4014 7.81201 10.542 7.81201 10.8232V11.623C7.81201 11.9043 7.67139 12.0449 7.39014 12.0449H6.31787ZM4.49854 7.68555H14.8169V7.29883C14.8169 6.83008 14.6968 6.47852 14.4565 6.24414C14.2163 6.00391 13.8618 5.88379 13.3931 5.88379H5.92236C5.45947 5.88379 5.10498 6.00391 4.85889 6.24414C4.61865 6.47852 4.49854 6.83008 4.49854 7.29883V7.68555Z" fill="url(#paint0_linear_414_799)"/>
<defs>
<linearGradient id="paint0_linear_414_799" x1="-1.3335" y1="-1" x2="21.1375" y2="-0.483325" gradientUnits="userSpaceOnUse">
<stop stop-color="#8AD4EC"/>
<stop offset="0.217372" stop-color="#EF96FF"/>
<stop offset="0.540308" stop-color="#FF56A9"/>
<stop offset="0.852826" stop-color="#FFAA6C"/>
</linearGradient>
</defs>
</svg>
