<svg width="20" height="19" viewBox="0 0 20 19" fill="none" xmlns="http://www.w3.org/2000/svg">
<path d="M9.99121 18.7422C8.74902 18.7422 7.58008 18.5049 6.48438 18.0303C5.38867 17.5615 4.42188 16.9082 3.58398 16.0703C2.75195 15.2324 2.09863 14.2656 1.62402 13.1699C1.14941 12.0742 0.912109 10.9053 0.912109 9.66309C0.912109 8.4209 1.14941 7.25195 1.62402 6.15625C2.09863 5.06055 2.75195 4.09668 3.58398 3.26465C4.42188 2.42676 5.38574 1.77051 6.47559 1.2959C7.57129 0.821289 8.74023 0.583984 9.98242 0.583984C11.2305 0.583984 12.4023 0.821289 13.498 1.2959C14.5938 1.77051 15.5605 2.42676 16.3984 3.26465C17.2363 4.09668 17.8926 5.06055 18.3672 6.15625C18.8418 7.25195 19.0791 8.4209 19.0791 9.66309C19.0791 10.9053 18.8418 12.0742 18.3672 13.1699C17.8926 14.2656 17.2363 15.2324 16.3984 16.0703C15.5605 16.9082 14.5938 17.5615 13.498 18.0303C12.4023 18.5049 11.2334 18.7422 9.99121 18.7422ZM10 14.6816C10.0469 14.6816 10.0967 14.6816 10.1494 14.6816C10.2021 14.6758 10.2549 14.6729 10.3076 14.6729L10.5625 15.1299C10.6504 15.3232 10.7998 15.4023 11.0107 15.3672C11.0928 15.3555 11.1631 15.3174 11.2217 15.2529C11.2861 15.1885 11.3271 15.1094 11.3447 15.0156L11.415 14.4707C11.5146 14.4414 11.6143 14.4092 11.7139 14.374C11.8135 14.3389 11.9131 14.3037 12.0127 14.2686L12.3906 14.6113C12.5371 14.7461 12.7041 14.7695 12.8916 14.6816C13.0557 14.582 13.123 14.4297 13.0938 14.2246L12.9707 13.6885C13.0703 13.624 13.1582 13.5596 13.2344 13.4951C13.3164 13.4248 13.3896 13.3604 13.4541 13.3018L13.9463 13.4951C14.1338 13.5771 14.3008 13.5361 14.4473 13.3721C14.5703 13.2256 14.5791 13.0645 14.4736 12.8887L14.1924 12.4316C14.2451 12.3438 14.2949 12.2559 14.3418 12.168C14.3945 12.0742 14.4443 11.9805 14.4912 11.8867L15.0361 11.9131C15.2471 11.9189 15.3789 11.8252 15.4316 11.6318C15.5078 11.4443 15.4639 11.2891 15.2998 11.166L14.8691 10.832C14.8984 10.7324 14.9219 10.6328 14.9395 10.5332C14.957 10.4277 14.9746 10.3193 14.9922 10.208L15.4932 10.041C15.6924 9.97656 15.792 9.84473 15.792 9.64551C15.792 9.45215 15.6924 9.32031 15.4932 9.25L14.9922 9.0918C14.9746 8.98633 14.957 8.88379 14.9395 8.78418C14.9219 8.68457 14.8984 8.58203 14.8691 8.47656L15.2998 8.14258C15.458 8.01367 15.5049 7.8584 15.4404 7.67676C15.376 7.47754 15.2383 7.38672 15.0273 7.4043L14.4912 7.42188C14.4385 7.31641 14.3857 7.21973 14.333 7.13184C14.2861 7.03809 14.2393 6.95313 14.1924 6.87695L14.4736 6.41113C14.5732 6.24707 14.5615 6.08887 14.4385 5.93652C14.292 5.77832 14.1309 5.73438 13.9551 5.80469L13.4541 5.99805C13.3838 5.93945 13.3076 5.87793 13.2256 5.81348C13.1436 5.74316 13.0586 5.67578 12.9707 5.61133L13.0938 5.09277C13.123 4.87598 13.0557 4.72363 12.8916 4.63574C12.7041 4.53027 12.5371 4.55371 12.3906 4.70605L12.0039 5.04004C11.9102 5.00488 11.8135 4.96973 11.7139 4.93457C11.6143 4.89355 11.5146 4.8584 11.415 4.8291L11.3447 4.29297C11.3096 4.09375 11.1982 3.97949 11.0107 3.9502C10.9111 3.93262 10.8203 3.94434 10.7383 3.98535C10.6562 4.02637 10.5977 4.08496 10.5625 4.16113L10.3076 4.63574C10.2549 4.63574 10.2021 4.63574 10.1494 4.63574C10.1025 4.62988 10.0527 4.62695 10 4.62695C9.94727 4.62695 9.8916 4.62988 9.83301 4.63574C9.78027 4.63574 9.72754 4.63574 9.6748 4.63574L9.41992 4.16113C9.33789 3.98535 9.19141 3.91504 8.98047 3.9502C8.78711 3.97949 8.67285 4.09375 8.6377 4.29297L8.56738 4.8291C8.46777 4.8584 8.36816 4.89355 8.26855 4.93457C8.1748 4.96973 8.07812 5.00488 7.97852 5.04004L7.5918 4.70605C7.43945 4.55371 7.27539 4.53027 7.09961 4.63574C6.92969 4.72949 6.85938 4.88184 6.88867 5.09277L7.00293 5.61133C6.91504 5.67578 6.83008 5.74316 6.74805 5.81348C6.67188 5.87793 6.59863 5.93945 6.52832 5.99805L6.02734 5.80469C5.8457 5.73438 5.6875 5.77832 5.55273 5.93652C5.41797 6.07715 5.40332 6.23535 5.50879 6.41113L5.79004 6.87695C5.7373 6.96484 5.68457 7.05566 5.63184 7.14941C5.58496 7.24316 5.53809 7.33398 5.49121 7.42188L4.95508 7.4043C4.74414 7.38672 4.60645 7.47754 4.54199 7.67676C4.47754 7.84668 4.52441 8.00195 4.68262 8.14258L5.10449 8.47656C5.0752 8.58789 5.05176 8.69629 5.03418 8.80176C5.0166 8.90137 5.00488 8.99805 4.99902 9.0918L4.48926 9.25C4.2959 9.32031 4.19922 9.45215 4.19922 9.64551C4.19922 9.84473 4.2959 9.97656 4.48926 10.041L4.99902 10.208C5.00488 10.3076 5.0166 10.4102 5.03418 10.5156C5.05176 10.6152 5.0752 10.7207 5.10449 10.832L4.68262 11.166C4.52441 11.2891 4.47754 11.4443 4.54199 11.6318C4.60059 11.8252 4.73535 11.9189 4.94629 11.9131L5.49121 11.8867C5.53809 11.9805 5.58496 12.0742 5.63184 12.168C5.68457 12.2559 5.7373 12.3438 5.79004 12.4316L5.5 12.8887C5.45898 12.9707 5.44141 13.0557 5.44727 13.1436C5.45312 13.2314 5.48535 13.3076 5.54395 13.3721C5.68457 13.5361 5.84863 13.5771 6.03613 13.4951L6.52832 13.3018C6.59277 13.3604 6.66309 13.4248 6.73926 13.4951C6.82129 13.5596 6.90918 13.624 7.00293 13.6885L6.88867 14.2246C6.85352 14.4238 6.92383 14.5762 7.09961 14.6816C7.28711 14.7754 7.45117 14.752 7.5918 14.6113L7.97852 14.2686C8.07812 14.3037 8.1748 14.3389 8.26855 14.374C8.36816 14.4092 8.46777 14.4414 8.56738 14.4707L8.6377 15.0068C8.64941 15.1006 8.6875 15.1826 8.75195 15.2529C8.81641 15.3174 8.89258 15.3555 8.98047 15.3672C9.18555 15.4023 9.33203 15.3232 9.41992 15.1299L9.6748 14.6729C9.72754 14.6729 9.78027 14.6758 9.83301 14.6816C9.8916 14.6816 9.94727 14.6816 10 14.6816ZM6.09766 9.6543C6.09766 9.00977 6.23242 8.41797 6.50195 7.87891C6.77148 7.33398 7.13477 6.87988 7.5918 6.5166L8.875 8.73145C8.63477 9.00684 8.51465 9.32031 8.51465 9.67188C8.51465 10.0059 8.6377 10.3135 8.88379 10.5947L7.55664 12.7568C7.10547 12.3994 6.74805 11.9541 6.48438 11.4209C6.22656 10.8818 6.09766 10.293 6.09766 9.6543ZM9.99121 5.69922C10.665 5.69922 11.2803 5.85156 11.8369 6.15625C12.3994 6.45508 12.8564 6.86816 13.208 7.39551C13.5654 7.91699 13.7822 8.50879 13.8584 9.1709H11.3711C11.2422 8.85449 11.0547 8.61133 10.8086 8.44141C10.5625 8.27148 10.2871 8.18652 9.98242 8.18652C9.94727 8.18652 9.90625 8.18945 9.85938 8.19531C9.8125 8.19531 9.75977 8.20117 9.70117 8.21289L8.41797 6.02441C8.6582 5.9248 8.91016 5.8457 9.17383 5.78711C9.4375 5.72852 9.70996 5.69922 9.99121 5.69922ZM9.99121 13.6094C9.42871 13.6094 8.89258 13.498 8.38281 13.2754L9.70117 11.1133C9.75391 11.1309 9.80371 11.1426 9.85059 11.1484C9.90332 11.1484 9.94727 11.1484 9.98242 11.1484C10.2871 11.1484 10.5625 11.0635 10.8086 10.8936C11.0547 10.7178 11.2451 10.4658 11.3799 10.1377H13.8584C13.7881 10.7998 13.5742 11.3916 13.2168 11.9131C12.8594 12.4346 12.3994 12.8477 11.8369 13.1523C11.2803 13.457 10.665 13.6094 9.99121 13.6094ZM9.47266 9.66309C9.47266 9.52832 9.52246 9.41406 9.62207 9.32031C9.72754 9.2207 9.84766 9.1709 9.98242 9.1709C10.1289 9.1709 10.252 9.2207 10.3516 9.32031C10.457 9.41406 10.5098 9.52832 10.5098 9.66309C10.5098 9.80371 10.457 9.92383 10.3516 10.0234C10.252 10.123 10.1289 10.1729 9.98242 10.1729C9.84766 10.1729 9.72754 10.123 9.62207 10.0234C9.52246 9.92383 9.47266 9.80371 9.47266 9.66309Z" fill="url(#paint0_linear_414_844)"/>
<defs>
<linearGradient id="paint0_linear_414_844" x1="-1" y1="-1" x2="21.471" y2="-0.483325" gradientUnits="userSpaceOnUse">
<stop stop-color="#8AD4EC"/>
<stop offset="0.217372" stop-color="#EF96FF"/>
<stop offset="0.540308" stop-color="#FF56A9"/>
<stop offset="0.852826" stop-color="#FFAA6C"/>
</linearGradient>
</defs>
</svg>
