<svg width="21" height="22" viewBox="0 0 21 22" fill="none" xmlns="http://www.w3.org/2000/svg">
<path d="M10.3236 21.0371C8.9434 21.0371 7.64457 20.7734 6.42712 20.2461C5.20968 19.7253 4.13546 18.9993 3.20447 18.0684C2.27999 17.1374 1.55408 16.0632 1.02673 14.8457C0.49939 13.6283 0.235718 12.3294 0.235718 10.9492C0.235718 9.56901 0.49939 8.27018 1.02673 7.05273C1.55408 5.83529 2.27999 4.76432 3.20447 3.83984C4.13546 2.90885 5.20642 2.17969 6.41736 1.65234C7.63481 1.125 8.93363 0.861328 10.3138 0.861328C11.7006 0.861328 13.0026 1.125 14.2201 1.65234C15.4375 2.17969 16.5118 2.90885 17.4427 3.83984C18.3737 4.76432 19.1029 5.83529 19.6302 7.05273C20.1576 8.27018 20.4213 9.56901 20.4213 10.9492C20.4213 12.3294 20.1576 13.6283 19.6302 14.8457C19.1029 16.0632 18.3737 17.1374 17.4427 18.0684C16.5118 18.9993 15.4375 19.7253 14.2201 20.2461C13.0026 20.7734 11.7038 21.0371 10.3236 21.0371ZM8.04822 8.36133H15.2748C15.4571 8.36133 15.6101 8.29948 15.7338 8.17578C15.864 8.04557 15.9291 7.88932 15.9291 7.70703C15.9291 7.52474 15.864 7.37174 15.7338 7.24805C15.6101 7.11784 15.4571 7.05273 15.2748 7.05273H8.04822C7.86593 7.05273 7.70968 7.11784 7.57947 7.24805C7.45577 7.37174 7.39392 7.52474 7.39392 7.70703C7.39392 7.88281 7.45903 8.03581 7.58923 8.16602C7.71944 8.29622 7.87244 8.36133 8.04822 8.36133ZM8.04822 14.875H15.2748C15.4571 14.875 15.6101 14.8132 15.7338 14.6895C15.864 14.5592 15.9291 14.3997 15.9291 14.2109C15.9291 14.0352 15.864 13.8854 15.7338 13.7617C15.6101 13.6315 15.4571 13.5664 15.2748 13.5664H8.04822C7.87244 13.5664 7.71944 13.6315 7.58923 13.7617C7.45903 13.8854 7.39392 14.0352 7.39392 14.2109C7.39392 14.3932 7.45577 14.5495 7.57947 14.6797C7.70968 14.8099 7.86593 14.875 8.04822 14.875ZM8.04822 11.6133H15.2748C15.4571 11.6133 15.6101 11.5514 15.7338 11.4277C15.864 11.304 15.9291 11.1478 15.9291 10.959C15.9291 10.7767 15.864 10.6237 15.7338 10.5C15.6101 10.3763 15.4571 10.3145 15.2748 10.3145H8.04822C7.86593 10.3145 7.70968 10.3796 7.57947 10.5098C7.45577 10.6335 7.39392 10.7832 7.39392 10.959C7.39392 11.1413 7.45903 11.2975 7.58923 11.4277C7.71944 11.5514 7.87244 11.6133 8.04822 11.6133ZM5.59705 8.60547C5.84444 8.60547 6.05603 8.51758 6.23181 8.3418C6.40759 8.15951 6.49548 7.94792 6.49548 7.70703C6.49548 7.45312 6.40759 7.23828 6.23181 7.0625C6.05603 6.88672 5.84444 6.79883 5.59705 6.79883C5.34965 6.79883 5.13806 6.88672 4.96228 7.0625C4.7865 7.23828 4.69861 7.45312 4.69861 7.70703C4.69861 7.95443 4.7865 8.16602 4.96228 8.3418C5.13806 8.51758 5.34965 8.60547 5.59705 8.60547ZM5.59705 11.8574C5.84444 11.8574 6.05603 11.7695 6.23181 11.5938C6.40759 11.418 6.49548 11.2064 6.49548 10.959C6.49548 10.7181 6.40759 10.5098 6.23181 10.334C6.05603 10.1517 5.84444 10.0605 5.59705 10.0605C5.34965 10.0605 5.13806 10.1484 4.96228 10.3242C4.7865 10.5 4.69861 10.7116 4.69861 10.959C4.69861 11.2129 4.7865 11.4277 4.96228 11.6035C5.13806 11.7728 5.34965 11.8574 5.59705 11.8574ZM5.59705 15.1191C5.84444 15.1191 6.05603 15.0312 6.23181 14.8555C6.40759 14.6797 6.49548 14.4648 6.49548 14.2109C6.49548 13.9701 6.40759 13.7617 6.23181 13.5859C6.05603 13.4036 5.84444 13.3125 5.59705 13.3125C5.34965 13.3125 5.13806 13.4036 4.96228 13.5859C4.7865 13.7617 4.69861 13.9701 4.69861 14.2109C4.69861 14.4648 4.7865 14.6797 4.96228 14.8555C5.13806 15.0312 5.34965 15.1191 5.59705 15.1191Z" fill="url(#paint0_linear_421_2001)"/>
<defs>
<linearGradient id="paint0_linear_421_2001" x1="-1.66663" y1="-1" x2="22.8483" y2="-0.461949" gradientUnits="userSpaceOnUse">
<stop stop-color="#8AD4EC"/>
<stop offset="0.217372" stop-color="#EF96FF"/>
<stop offset="0.540308" stop-color="#FF56A9"/>
<stop offset="0.852826" stop-color="#FFAA6C"/>
</linearGradient>
</defs>
</svg>
