<svg width="22" height="22" viewBox="0 0 22 22" fill="none" xmlns="http://www.w3.org/2000/svg">
<path d="M10.9902 21.0469C9.61003 21.0469 8.3112 20.7832 7.09375 20.2559C5.8763 19.735 4.80208 19.0091 3.87109 18.0781C2.94661 17.1471 2.2207 16.0729 1.69336 14.8555C1.16602 13.638 0.902344 12.3392 0.902344 10.959C0.902344 9.57878 1.16602 8.27995 1.69336 7.0625C2.2207 5.84505 2.94661 4.77409 3.87109 3.84961C4.80208 2.91862 5.87305 2.18945 7.08398 1.66211C8.30143 1.13477 9.60026 0.871094 10.9805 0.871094C12.3672 0.871094 13.6693 1.13477 14.8867 1.66211C16.1042 2.18945 17.1784 2.91862 18.1094 3.84961C19.0404 4.77409 19.7695 5.84505 20.2969 7.0625C20.8242 8.27995 21.0879 9.57878 21.0879 10.959C21.0879 12.3392 20.8242 13.638 20.2969 14.8555C19.7695 16.0729 19.0404 17.1471 18.1094 18.0781C17.1784 19.0091 16.1042 19.735 14.8867 20.2559C13.6693 20.7832 12.3704 21.0469 10.9902 21.0469ZM8.03125 15.9492H14.0859C14.5742 15.9492 14.9551 15.806 15.2285 15.5195C15.5085 15.2331 15.6484 14.8197 15.6484 14.2793V8.9375C15.6484 8.39062 15.502 7.98047 15.209 7.70703C14.9225 7.42708 14.5026 7.28711 13.9492 7.28711H13.2168C13.2103 6.70768 12.9889 6.21289 12.5527 5.80273C12.123 5.38607 11.6022 5.17773 10.9902 5.17773C10.3783 5.17773 9.85742 5.38607 9.42773 5.80273C8.99805 6.21289 8.77669 6.70768 8.76367 7.28711H8.03125C7.47786 7.28711 7.05469 7.42708 6.76172 7.70703C6.47526 7.98047 6.33203 8.39062 6.33203 8.9375V14.2793C6.33203 14.8262 6.47526 15.2428 6.76172 15.5293C7.05469 15.8092 7.47786 15.9492 8.03125 15.9492ZM9.85742 7.28711C9.87044 6.95508 9.97786 6.69141 10.1797 6.49609C10.3815 6.29427 10.6517 6.19336 10.9902 6.19336C11.3288 6.19336 11.599 6.29427 11.8008 6.49609C12.0026 6.69141 12.11 6.95508 12.123 7.28711H9.85742Z" fill="url(#paint0_linear_414_1083)"/>
<defs>
<linearGradient id="paint0_linear_414_1083" x1="-1" y1="-1" x2="23.5149" y2="-0.461949" gradientUnits="userSpaceOnUse">
<stop stop-color="#8AD4EC"/>
<stop offset="0.217372" stop-color="#EF96FF"/>
<stop offset="0.540308" stop-color="#FF56A9"/>
<stop offset="0.852826" stop-color="#FFAA6C"/>
</linearGradient>
</defs>
</svg>
